<mxfile host="app.diagrams.net" modified="2021-01-09T13:55:40.160Z" agent="5.0 (Windows)" etag="7ovz7OSuGDfoQnkBSbVb" version="14.1.8" type="github">
  <diagram id="C5RBs43oDa-KdzZeNtuy" name="Page-1">
    <mxGraphModel dx="2048" dy="1853" grid="0" gridSize="10" guides="1" tooltips="1" connect="1" arrows="1" fold="1" page="1" pageScale="1" pageWidth="827" pageHeight="1169" math="0" shadow="0">
      <root>
        <mxCell id="WIyWlLk6GJQsqaUBKTNV-0" />
        <mxCell id="WIyWlLk6GJQsqaUBKTNV-1" parent="WIyWlLk6GJQsqaUBKTNV-0" />
        <mxCell id="nKzH3nvOUgAltSvdypmU-16" style="edgeStyle=orthogonalEdgeStyle;rounded=0;orthogonalLoop=1;jettySize=auto;html=1;exitX=0.5;exitY=1;exitDx=0;exitDy=0;exitPerimeter=0;entryX=0.5;entryY=0;entryDx=0;entryDy=0;" edge="1" parent="WIyWlLk6GJQsqaUBKTNV-1" source="nKzH3nvOUgAltSvdypmU-1" target="nKzH3nvOUgAltSvdypmU-4">
          <mxGeometry relative="1" as="geometry" />
        </mxCell>
        <mxCell id="nKzH3nvOUgAltSvdypmU-1" value="开始" style="strokeWidth=2;html=1;shape=mxgraph.flowchart.terminator;whiteSpace=wrap;" vertex="1" parent="WIyWlLk6GJQsqaUBKTNV-1">
          <mxGeometry x="113" width="50" height="30" as="geometry" />
        </mxCell>
        <mxCell id="nKzH3nvOUgAltSvdypmU-2" value="结束" style="strokeWidth=2;html=1;shape=mxgraph.flowchart.terminator;whiteSpace=wrap;" vertex="1" parent="WIyWlLk6GJQsqaUBKTNV-1">
          <mxGeometry x="113" y="650" width="50" height="30" as="geometry" />
        </mxCell>
        <mxCell id="nKzH3nvOUgAltSvdypmU-14" style="edgeStyle=orthogonalEdgeStyle;rounded=0;orthogonalLoop=1;jettySize=auto;html=1;exitX=0.5;exitY=1;exitDx=0;exitDy=0;" edge="1" parent="WIyWlLk6GJQsqaUBKTNV-1" source="nKzH3nvOUgAltSvdypmU-4" target="nKzH3nvOUgAltSvdypmU-6">
          <mxGeometry relative="1" as="geometry" />
        </mxCell>
        <mxCell id="nKzH3nvOUgAltSvdypmU-4" value="&lt;pre style=&quot;background-color: rgb(255 , 255 , 255) ; font-family: &amp;#34;jetbrains mono&amp;#34; ; font-size: 9.8pt&quot;&gt;csignal = QtCore.pyqtSignal(int)&lt;br&gt;ssignal = QtCore.pyqtSignal()global pout&lt;br&gt;global flag&lt;br&gt;global buffer&lt;/pre&gt;" style="rounded=0;whiteSpace=wrap;html=1;absoluteArcSize=1;arcSize=14;strokeWidth=2;" vertex="1" parent="WIyWlLk6GJQsqaUBKTNV-1">
          <mxGeometry x="-7" y="50" width="290" height="90" as="geometry" />
        </mxCell>
        <mxCell id="nKzH3nvOUgAltSvdypmU-18" style="edgeStyle=orthogonalEdgeStyle;rounded=0;orthogonalLoop=1;jettySize=auto;html=1;exitX=1;exitY=0.5;exitDx=0;exitDy=0;entryX=0;entryY=0.5;entryDx=0;entryDy=0;entryPerimeter=0;" edge="1" parent="WIyWlLk6GJQsqaUBKTNV-1" source="nKzH3nvOUgAltSvdypmU-5" target="nKzH3nvOUgAltSvdypmU-7">
          <mxGeometry relative="1" as="geometry">
            <mxPoint x="383" y="560" as="targetPoint" />
          </mxGeometry>
        </mxCell>
        <mxCell id="nKzH3nvOUgAltSvdypmU-5" value="&lt;div&gt;P(full)&lt;/div&gt;&lt;div&gt;P(mutex)&lt;br&gt;&lt;/div&gt;" style="rounded=0;whiteSpace=wrap;html=1;absoluteArcSize=1;arcSize=14;strokeWidth=2;" vertex="1" parent="WIyWlLk6GJQsqaUBKTNV-1">
          <mxGeometry x="243" y="540" width="80" height="40" as="geometry" />
        </mxCell>
        <mxCell id="nKzH3nvOUgAltSvdypmU-15" style="edgeStyle=orthogonalEdgeStyle;rounded=0;orthogonalLoop=1;jettySize=auto;html=1;exitX=0.5;exitY=1;exitDx=0;exitDy=0;exitPerimeter=0;entryX=0.5;entryY=0;entryDx=0;entryDy=0;entryPerimeter=0;" edge="1" parent="WIyWlLk6GJQsqaUBKTNV-1" source="nKzH3nvOUgAltSvdypmU-6" target="nKzH3nvOUgAltSvdypmU-2">
          <mxGeometry relative="1" as="geometry" />
        </mxCell>
        <mxCell id="nKzH3nvOUgAltSvdypmU-17" style="edgeStyle=orthogonalEdgeStyle;rounded=0;orthogonalLoop=1;jettySize=auto;html=1;exitX=1;exitY=0.5;exitDx=0;exitDy=0;exitPerimeter=0;" edge="1" parent="WIyWlLk6GJQsqaUBKTNV-1" source="nKzH3nvOUgAltSvdypmU-6" target="nKzH3nvOUgAltSvdypmU-5">
          <mxGeometry relative="1" as="geometry" />
        </mxCell>
        <mxCell id="nKzH3nvOUgAltSvdypmU-6" value="接收到结束信号？" style="strokeWidth=2;html=1;shape=mxgraph.flowchart.decision;whiteSpace=wrap;rounded=0;" vertex="1" parent="WIyWlLk6GJQsqaUBKTNV-1">
          <mxGeometry x="68" y="520" width="140" height="80" as="geometry" />
        </mxCell>
        <mxCell id="nKzH3nvOUgAltSvdypmU-21" style="edgeStyle=orthogonalEdgeStyle;rounded=0;orthogonalLoop=1;jettySize=auto;html=1;exitX=1;exitY=0.5;exitDx=0;exitDy=0;exitPerimeter=0;entryX=0;entryY=0.5;entryDx=0;entryDy=0;" edge="1" parent="WIyWlLk6GJQsqaUBKTNV-1" source="nKzH3nvOUgAltSvdypmU-7" target="nKzH3nvOUgAltSvdypmU-8">
          <mxGeometry relative="1" as="geometry" />
        </mxCell>
        <mxCell id="nKzH3nvOUgAltSvdypmU-23" style="edgeStyle=orthogonalEdgeStyle;rounded=0;orthogonalLoop=1;jettySize=auto;html=1;exitX=0.5;exitY=0;exitDx=0;exitDy=0;exitPerimeter=0;entryX=0.5;entryY=1;entryDx=0;entryDy=0;" edge="1" parent="WIyWlLk6GJQsqaUBKTNV-1" source="nKzH3nvOUgAltSvdypmU-7" target="nKzH3nvOUgAltSvdypmU-9">
          <mxGeometry relative="1" as="geometry" />
        </mxCell>
        <mxCell id="nKzH3nvOUgAltSvdypmU-7" value="&lt;pre style=&quot;background-color: #ffffff ; color: #080808 ; font-family: &amp;#34;jetbrains mono&amp;#34; ; font-size: 9.8pt&quot;&gt;&lt;font color=&quot;#000000&quot;&gt;buffer.count(1) == &lt;/font&gt;&lt;span style=&quot;color: #1750eb&quot;&gt;&lt;font color=&quot;#000000&quot;&gt;80&lt;br&gt;判断缓冲池是否已满？&lt;/font&gt;&lt;br&gt;&lt;/span&gt;&lt;/pre&gt;" style="strokeWidth=2;html=1;shape=mxgraph.flowchart.decision;whiteSpace=wrap;rounded=0;" vertex="1" parent="WIyWlLk6GJQsqaUBKTNV-1">
          <mxGeometry x="353" y="515" width="220" height="90" as="geometry" />
        </mxCell>
        <mxCell id="nKzH3nvOUgAltSvdypmU-30" style="edgeStyle=orthogonalEdgeStyle;rounded=0;orthogonalLoop=1;jettySize=auto;html=1;exitX=0.5;exitY=0;exitDx=0;exitDy=0;entryX=1;entryY=0.5;entryDx=0;entryDy=0;" edge="1" parent="WIyWlLk6GJQsqaUBKTNV-1" source="nKzH3nvOUgAltSvdypmU-8" target="nKzH3nvOUgAltSvdypmU-9">
          <mxGeometry relative="1" as="geometry">
            <mxPoint x="548" y="500" as="targetPoint" />
          </mxGeometry>
        </mxCell>
        <mxCell id="nKzH3nvOUgAltSvdypmU-8" value="&lt;div&gt;flag=1&lt;/div&gt;&lt;div&gt;生产者进程停止生产&lt;br&gt;&lt;/div&gt;" style="rounded=0;whiteSpace=wrap;html=1;absoluteArcSize=1;arcSize=14;strokeWidth=2;" vertex="1" parent="WIyWlLk6GJQsqaUBKTNV-1">
          <mxGeometry x="613" y="540" width="130" height="40" as="geometry" />
        </mxCell>
        <mxCell id="nKzH3nvOUgAltSvdypmU-24" style="edgeStyle=orthogonalEdgeStyle;rounded=0;orthogonalLoop=1;jettySize=auto;html=1;exitX=0.5;exitY=0;exitDx=0;exitDy=0;entryX=0.5;entryY=1;entryDx=0;entryDy=0;entryPerimeter=0;" edge="1" parent="WIyWlLk6GJQsqaUBKTNV-1" source="nKzH3nvOUgAltSvdypmU-9" target="nKzH3nvOUgAltSvdypmU-10">
          <mxGeometry relative="1" as="geometry" />
        </mxCell>
        <mxCell id="nKzH3nvOUgAltSvdypmU-9" value="&lt;pre style=&quot;background-color: rgb(255 , 255 , 255) ; font-family: &amp;#34;jetbrains mono&amp;#34; ; font-size: 9.8pt&quot;&gt;往主进程发送已消费信号&lt;br&gt;self.csignal.emit(pout)&lt;br&gt;buffer[pout] -= 1&lt;br&gt;pout = (pout + 1) % 80&lt;/pre&gt;" style="rounded=0;whiteSpace=wrap;html=1;absoluteArcSize=1;arcSize=14;strokeWidth=2;" vertex="1" parent="WIyWlLk6GJQsqaUBKTNV-1">
          <mxGeometry x="378" y="410" width="170" height="80" as="geometry" />
        </mxCell>
        <mxCell id="nKzH3nvOUgAltSvdypmU-25" style="edgeStyle=orthogonalEdgeStyle;rounded=0;orthogonalLoop=1;jettySize=auto;html=1;exitX=1;exitY=0.5;exitDx=0;exitDy=0;exitPerimeter=0;entryX=0;entryY=0.5;entryDx=0;entryDy=0;" edge="1" parent="WIyWlLk6GJQsqaUBKTNV-1" source="nKzH3nvOUgAltSvdypmU-10" target="nKzH3nvOUgAltSvdypmU-11">
          <mxGeometry relative="1" as="geometry" />
        </mxCell>
        <mxCell id="nKzH3nvOUgAltSvdypmU-26" style="edgeStyle=orthogonalEdgeStyle;rounded=0;orthogonalLoop=1;jettySize=auto;html=1;exitX=0.5;exitY=0;exitDx=0;exitDy=0;exitPerimeter=0;entryX=0.5;entryY=1;entryDx=0;entryDy=0;" edge="1" parent="WIyWlLk6GJQsqaUBKTNV-1" source="nKzH3nvOUgAltSvdypmU-10" target="nKzH3nvOUgAltSvdypmU-12">
          <mxGeometry relative="1" as="geometry" />
        </mxCell>
        <mxCell id="nKzH3nvOUgAltSvdypmU-10" value="&lt;pre style=&quot;background-color: rgb(255 , 255 , 255) ; font-family: &amp;#34;jetbrains mono&amp;#34; ; font-size: 9.8pt&quot;&gt;buffer.count(1) == 0 &lt;br&gt;and flag == 1？&lt;br&gt;缓冲池是否全部为空以及&lt;br&gt;生产者进程被锁住？&lt;br&gt;&lt;/pre&gt;" style="strokeWidth=2;html=1;shape=mxgraph.flowchart.decision;whiteSpace=wrap;rounded=0;" vertex="1" parent="WIyWlLk6GJQsqaUBKTNV-1">
          <mxGeometry x="308" y="260" width="310" height="120" as="geometry" />
        </mxCell>
        <mxCell id="nKzH3nvOUgAltSvdypmU-27" style="edgeStyle=orthogonalEdgeStyle;rounded=0;orthogonalLoop=1;jettySize=auto;html=1;exitX=0.5;exitY=0;exitDx=0;exitDy=0;entryX=1;entryY=0.5;entryDx=0;entryDy=0;" edge="1" parent="WIyWlLk6GJQsqaUBKTNV-1" source="nKzH3nvOUgAltSvdypmU-11" target="nKzH3nvOUgAltSvdypmU-12">
          <mxGeometry relative="1" as="geometry" />
        </mxCell>
        <mxCell id="nKzH3nvOUgAltSvdypmU-11" value="&lt;pre style=&quot;background-color: rgb(255 , 255 , 255) ; font-family: &amp;#34;jetbrains mono&amp;#34; ; font-size: 9.8pt&quot;&gt;生产者重新开始执行&lt;br&gt;flag = 0&lt;br&gt;发送生产者重新开始信号&lt;br&gt;W(cmutex)&lt;br&gt;W(cmutex)&lt;/pre&gt;" style="rounded=0;whiteSpace=wrap;html=1;absoluteArcSize=1;arcSize=14;strokeWidth=2;" vertex="1" parent="WIyWlLk6GJQsqaUBKTNV-1">
          <mxGeometry x="663" y="270" width="160" height="100" as="geometry" />
        </mxCell>
        <mxCell id="nKzH3nvOUgAltSvdypmU-29" style="edgeStyle=orthogonalEdgeStyle;rounded=0;orthogonalLoop=1;jettySize=auto;html=1;exitX=0;exitY=0.5;exitDx=0;exitDy=0;" edge="1" parent="WIyWlLk6GJQsqaUBKTNV-1" source="nKzH3nvOUgAltSvdypmU-12">
          <mxGeometry relative="1" as="geometry">
            <mxPoint x="143" y="160" as="targetPoint" />
          </mxGeometry>
        </mxCell>
        <mxCell id="nKzH3nvOUgAltSvdypmU-12" value="&lt;pre style=&quot;background-color: rgb(255 , 255 , 255) ; font-family: &amp;#34;jetbrains mono&amp;#34; ; font-size: 9.8pt&quot;&gt;释放资源&lt;br&gt;W(mutext)&lt;br&gt;W(empty)&lt;br&gt;sleep(0.2)&lt;/pre&gt;" style="rounded=0;whiteSpace=wrap;html=1;absoluteArcSize=1;arcSize=14;strokeWidth=2;" vertex="1" parent="WIyWlLk6GJQsqaUBKTNV-1">
          <mxGeometry x="413" y="120" width="100" height="80" as="geometry" />
        </mxCell>
        <mxCell id="nKzH3nvOUgAltSvdypmU-31" value="N" style="text;html=1;strokeColor=none;fillColor=none;align=center;verticalAlign=middle;whiteSpace=wrap;rounded=0;" vertex="1" parent="WIyWlLk6GJQsqaUBKTNV-1">
          <mxGeometry x="191" y="522" width="40" height="20" as="geometry" />
        </mxCell>
        <mxCell id="nKzH3nvOUgAltSvdypmU-32" value="Y" style="text;html=1;strokeColor=none;fillColor=none;align=center;verticalAlign=middle;whiteSpace=wrap;rounded=0;" vertex="1" parent="WIyWlLk6GJQsqaUBKTNV-1">
          <mxGeometry x="135" y="605" width="40" height="20" as="geometry" />
        </mxCell>
        <mxCell id="nKzH3nvOUgAltSvdypmU-33" value="Y" style="text;html=1;strokeColor=none;fillColor=none;align=center;verticalAlign=middle;whiteSpace=wrap;rounded=0;" vertex="1" parent="WIyWlLk6GJQsqaUBKTNV-1">
          <mxGeometry x="561" y="540" width="40" height="20" as="geometry" />
        </mxCell>
        <mxCell id="nKzH3nvOUgAltSvdypmU-34" value="N" style="text;html=1;strokeColor=none;fillColor=none;align=center;verticalAlign=middle;whiteSpace=wrap;rounded=0;" vertex="1" parent="WIyWlLk6GJQsqaUBKTNV-1">
          <mxGeometry x="418" y="500" width="40" height="20" as="geometry" />
        </mxCell>
        <mxCell id="nKzH3nvOUgAltSvdypmU-35" value="N" style="text;html=1;strokeColor=none;fillColor=none;align=center;verticalAlign=middle;whiteSpace=wrap;rounded=0;" vertex="1" parent="WIyWlLk6GJQsqaUBKTNV-1">
          <mxGeometry x="462" y="235" width="40" height="20" as="geometry" />
        </mxCell>
        <mxCell id="nKzH3nvOUgAltSvdypmU-36" value="Y" style="text;html=1;strokeColor=none;fillColor=none;align=center;verticalAlign=middle;whiteSpace=wrap;rounded=0;" vertex="1" parent="WIyWlLk6GJQsqaUBKTNV-1">
          <mxGeometry x="593" y="294" width="40" height="20" as="geometry" />
        </mxCell>
      </root>
    </mxGraphModel>
  </diagram>
</mxfile>
